<?xml version="1.0" encoding="UTF-8"?>
<!DOCTYPE svg PUBLIC "-//W3C//DTD SVG 1.1//EN" "http://www.w3.org/Graphics/SVG/1.1/DTD/svg11.dtd">
<svg xmlns="http://www.w3.org/2000/svg" version="1.1" width="388px" height="232px" style="shape-rendering:geometricPrecision; text-rendering:geometricPrecision; image-rendering:optimizeQuality; fill-rule:evenodd; clip-rule:evenodd" xmlns:xlink="http://www.w3.org/1999/xlink">
<g><path style="opacity:1" fill="#f6942b" d="M 263.5,8.5 C 262.766,9.70792 262.433,11.0413 262.5,12.5C 261.262,14.2143 260.595,16.2143 260.5,18.5C 259.262,20.2143 258.595,22.2143 258.5,24.5C 257.262,26.2143 256.595,28.2143 256.5,30.5C 256.5,30.8333 256.5,31.1667 256.5,31.5C 255.778,32.5511 254.778,33.2178 253.5,33.5C 248.484,33.0215 243.484,32.3549 238.5,31.5C 233.501,32.2498 228.501,32.9164 223.5,33.5C 222.041,33.5674 220.708,33.2341 219.5,32.5C 217.475,24.772 215.142,17.1053 212.5,9.5C 212.863,8.81654 213.196,8.14987 213.5,7.5C 228.341,2.88555 243.341,2.38555 258.5,6C 260.491,6.37362 262.158,7.20695 263.5,8.5 Z"/></g>
<g><path style="opacity:1" fill="#7497c4" d="M 340.5,4.5 C 351.988,3.50507 363.655,3.17174 375.5,3.5C 375.5,59.5 375.5,115.5 375.5,171.5C 363.5,171.5 351.5,171.5 339.5,171.5C 339.168,115.664 339.501,59.9975 340.5,4.5 Z"/></g>
<g><path style="opacity:1" fill="#08529c" d="M 340.5,4.5 C 351.833,4.5 363.167,4.5 374.5,4.5C 374.5,59.8333 374.5,115.167 374.5,170.5C 363.167,170.5 351.833,170.5 340.5,170.5C 340.5,115.167 340.5,59.8333 340.5,4.5 Z"/></g>
<g><path style="opacity:1" fill="#15559d" d="M 166.5,169.5 C 154.545,171.48 142.212,172.146 129.5,171.5C 125.672,160.682 122.005,149.682 118.5,138.5C 98.1667,137.167 77.8333,137.167 57.5,138.5C 53.4634,149.621 49.4634,160.621 45.5,171.5C 33.1201,172.146 21.1201,171.479 9.5,169.5C 28.6321,114.771 47.9654,60.1042 67.5,5.5C 81.4841,4.50075 95.4841,4.16742 109.5,4.5C 128.656,59.4625 147.656,114.463 166.5,169.5 Z M 107.5,104.5 C 107.5,105.5 107.5,106.5 107.5,107.5C 93.9895,107.829 80.6562,107.496 67.5,106.5C 74.4226,85.5646 81.256,64.5646 88,43.5C 94.3517,63.9157 100.852,84.249 107.5,104.5 Z"/></g>
<g><path style="opacity:1" fill="#fa8a80" d="M 263.5,8.5 C 264.791,8.26269 265.791,8.59603 266.5,9.5C 264.859,10.147 263.526,11.147 262.5,12.5C 262.433,11.0413 262.766,9.70792 263.5,8.5 Z"/></g>
<g><path style="opacity:1" fill="#f8ee2b" d="M 213.5,7.5 C 213.196,8.14987 212.863,8.81654 212.5,9.5C 215.142,17.1053 217.475,24.772 219.5,32.5C 219.5,33.1667 219.5,33.8333 219.5,34.5C 214.27,36.7857 209.27,39.619 204.5,43C 199.971,46.3635 195.971,50.1969 192.5,54.5C 184.863,49.5216 177.53,44.1883 170.5,38.5C 181.169,23.1762 195.502,12.8429 213.5,7.5 Z"/></g>
<g><path style="opacity:1" fill="#ec2c2e" d="M 266.5,9.5 C 282.502,14.6662 295.502,23.9995 305.5,37.5C 305.5,38.1667 305.5,38.8333 305.5,39.5C 303.596,39.7376 302.262,40.7376 301.5,42.5C 299.596,42.7376 298.262,43.7376 297.5,45.5C 295.973,45.427 294.973,46.0937 294.5,47.5C 292.596,47.7376 291.262,48.7376 290.5,50.5C 288.596,50.7376 287.262,51.7376 286.5,53.5C 285.508,53.3284 284.842,53.6618 284.5,54.5C 276.556,45.889 267.222,39.2223 256.5,34.5C 256.5,33.5 256.5,32.5 256.5,31.5C 256.5,31.1667 256.5,30.8333 256.5,30.5C 258.074,28.8984 258.741,26.8984 258.5,24.5C 260.074,22.8984 260.741,20.8984 260.5,18.5C 262.074,16.8984 262.741,14.8984 262.5,12.5C 263.526,11.147 264.859,10.147 266.5,9.5 Z"/></g>
<g><path style="opacity:1" fill="#facdbe" d="M 262.5,12.5 C 262.741,14.8984 262.074,16.8984 260.5,18.5C 260.595,16.2143 261.262,14.2143 262.5,12.5 Z"/></g>
<g><path style="opacity:1" fill="#fbcdb8" d="M 260.5,18.5 C 260.741,20.8984 260.074,22.8984 258.5,24.5C 258.595,22.2143 259.262,20.2143 260.5,18.5 Z"/></g>
<g><path style="opacity:1" fill="#facdb4" d="M 258.5,24.5 C 258.741,26.8984 258.074,28.8984 256.5,30.5C 256.595,28.2143 257.262,26.2143 258.5,24.5 Z"/></g>
<g><path style="opacity:1" fill="#fbdba8" d="M 219.5,32.5 C 220.708,33.2341 222.041,33.5674 223.5,33.5C 222.432,34.4345 221.099,34.7678 219.5,34.5C 219.5,33.8333 219.5,33.1667 219.5,32.5 Z"/></g>
<g><path style="opacity:1" fill="#fbdfc8" d="M 256.5,31.5 C 256.5,32.5 256.5,33.5 256.5,34.5C 255.209,34.7373 254.209,34.404 253.5,33.5C 254.778,33.2178 255.778,32.5511 256.5,31.5 Z"/></g>
<g><path style="opacity:1" fill="#ebbdc8" d="M 305.5,39.5 C 304.738,41.2624 303.404,42.2624 301.5,42.5C 302.262,40.7376 303.596,39.7376 305.5,39.5 Z"/></g>
<g><path style="opacity:1" fill="#a52652" d="M 305.5,37.5 C 317.225,52.5863 322.891,69.5863 322.5,88.5C 313.167,88.5 303.833,88.5 294.5,88.5C 294.149,81.6891 292.982,75.0224 291,68.5C 288.526,63.8901 286.359,59.2234 284.5,54.5C 284.842,53.6618 285.508,53.3284 286.5,53.5C 288.404,53.2624 289.738,52.2624 290.5,50.5C 292.404,50.2624 293.738,49.2624 294.5,47.5C 296.027,47.573 297.027,46.9063 297.5,45.5C 299.404,45.2624 300.738,44.2624 301.5,42.5C 303.404,42.2624 304.738,41.2624 305.5,39.5C 305.5,38.8333 305.5,38.1667 305.5,37.5 Z"/></g>
<g><path style="opacity:1" fill="#aace46" d="M 170.5,38.5 C 177.53,44.1883 184.863,49.5216 192.5,54.5C 187.217,62.741 183.884,71.741 182.5,81.5C 181.532,83.6074 181.198,85.9407 181.5,88.5C 172.5,88.5 163.5,88.5 154.5,88.5C 153.971,70.0812 159.305,53.4146 170.5,38.5 Z"/></g>
<g><path style="opacity:1" fill="#14569e" d="M 281.5,74.5 C 281.631,75.2389 281.464,75.9056 281,76.5C 274.828,71.8184 270.328,65.8184 267.5,58.5C 262.9,56.7294 259.4,53.7294 257,49.5C 254.054,52.2001 251.554,51.7001 249.5,48C 250.833,47.6667 252.167,47.3333 253.5,47C 251.776,46.5518 251.109,45.7185 251.5,44.5C 247.109,45.2623 242.776,44.7623 238.5,43C 236.167,42.3333 233.833,42.3333 231.5,43C 233.358,45.8549 235.858,48.0216 239,49.5C 240.411,51.6504 241.245,53.9837 241.5,56.5C 237.344,56.422 234.011,54.7553 231.5,51.5C 230.264,52.2458 228.93,52.5792 227.5,52.5C 227.815,50.7741 227.981,49.1075 228,47.5C 226.331,49.3528 226.165,51.3528 227.5,53.5C 229.385,54.6094 231.385,55.4427 233.5,56C 232.664,57.2433 232.997,58.4099 234.5,59.5C 238.111,60.986 241.777,62.3194 245.5,63.5C 244.672,64.4147 243.672,65.0814 242.5,65.5C 241.549,64.6744 240.549,64.5078 239.5,65C 241.439,65.9078 242.439,67.4078 242.5,69.5C 241.178,69.33 240.011,69.6634 239,70.5C 238.148,74.6514 236.982,78.6514 235.5,82.5C 236.046,84.1347 236.38,85.8014 236.5,87.5C 235.089,86.0924 233.423,85.0924 231.5,84.5C 229.666,85.7545 227.666,86.4211 225.5,86.5C 224.339,91.1746 226.006,93.8413 230.5,94.5C 230.222,92.6536 230.889,91.3202 232.5,90.5C 233.298,92.0777 233.798,93.7444 234,95.5C 234.718,94.5494 235.551,94.3828 236.5,95C 237.046,99.1327 238.713,99.9661 241.5,97.5C 242.086,97.7093 242.586,98.0426 243,98.5C 243.953,96.5448 245.287,94.8782 247,93.5C 247.333,93.8333 247.667,94.1667 248,94.5C 250.218,93.528 252.551,92.8613 255,92.5C 257.513,93.7305 260.013,93.7305 262.5,92.5C 264.397,92.7282 265.73,93.7282 266.5,95.5C 269.276,93.8702 272.276,93.2035 275.5,93.5C 274.924,106.32 269.757,116.987 260,125.5C 259.218,128.076 257.718,130.076 255.5,131.5C 255.167,129.833 254.833,128.167 254.5,126.5C 254.944,122.837 255.278,119.171 255.5,115.5C 245.385,115.391 241.052,110.391 242.5,100.5C 238.965,101.826 235.798,101.16 233,98.5C 231.049,99.9147 229.382,99.5814 228,97.5C 227.127,97.7355 226.293,98.0688 225.5,98.5C 223.827,96.9137 221.827,96.2471 219.5,96.5C 219.554,93.033 218.054,90.3663 215,88.5C 215.667,90.5 216.333,92.5 217,94.5C 213.276,90.6406 210.276,86.3072 208,81.5C 208.153,77.5132 208.32,73.6798 208.5,70C 208.022,67.7744 207.355,65.6077 206.5,63.5C 204.76,65.2108 202.76,66.0442 200.5,66C 203.09,63.9957 205.09,61.4957 206.5,58.5C 205.675,57.6143 204.675,57.281 203.5,57.5C 205.297,53.8475 208.297,50.6809 212.5,48C 228.991,38.4586 245.658,38.1252 262.5,47C 265.416,49.0712 265.082,50.4046 261.5,51C 263.492,51.5743 264.992,52.741 266,54.5C 266.483,53.552 266.649,52.552 266.5,51.5C 268.903,51.393 270.736,52.393 272,54.5C 276.582,59.9915 280.415,65.9915 283.5,72.5C 283.154,73.6956 282.654,73.6956 282,72.5C 281.536,73.0944 281.369,73.7611 281.5,74.5 Z"/></g>
<g><path style="opacity:1" fill="#e7b5c3" d="M 301.5,42.5 C 300.738,44.2624 299.404,45.2624 297.5,45.5C 298.262,43.7376 299.596,42.7376 301.5,42.5 Z"/></g>
<g><path style="opacity:1" fill="#e6b8c7" d="M 297.5,45.5 C 297.027,46.9063 296.027,47.573 294.5,47.5C 294.973,46.0937 295.973,45.427 297.5,45.5 Z"/></g>
<g><path style="opacity:1" fill="#ebb9c5" d="M 294.5,47.5 C 293.738,49.2624 292.404,50.2624 290.5,50.5C 291.262,48.7376 292.596,47.7376 294.5,47.5 Z"/></g>
<g><path style="opacity:1" fill="#e6b0bf" d="M 290.5,50.5 C 289.738,52.2624 288.404,53.2624 286.5,53.5C 287.262,51.7376 288.596,50.7376 290.5,50.5 Z"/></g>
<g><path style="opacity:1" fill="#f9fbfc" d="M 281.5,74.5 C 282.75,74.5774 283.583,75.244 284,76.5C 284.333,75.8333 284.667,75.1667 285,74.5C 288.152,85.9663 287.652,97.2996 283.5,108.5C 279.994,118.675 273.327,126.008 263.5,130.5C 246.842,138.462 230.176,138.462 213.5,130.5C 200.667,123.518 192.667,112.852 189.5,98.5C 188.581,86.0376 190.915,74.0376 196.5,62.5C 196.427,60.9731 197.094,59.9731 198.5,59.5C 199.999,57.6373 201.666,56.9706 203.5,57.5C 204.675,57.281 205.675,57.6143 206.5,58.5C 205.09,61.4957 203.09,63.9957 200.5,66C 202.76,66.0442 204.76,65.2108 206.5,63.5C 207.355,65.6077 208.022,67.7744 208.5,70C 208.32,73.6798 208.153,77.5132 208,81.5C 210.276,86.3072 213.276,90.6406 217,94.5C 216.333,92.5 215.667,90.5 215,88.5C 218.054,90.3663 219.554,93.033 219.5,96.5C 221.827,96.2471 223.827,96.9137 225.5,98.5C 226.293,98.0688 227.127,97.7355 228,97.5C 229.382,99.5814 231.049,99.9147 233,98.5C 235.798,101.16 238.965,101.826 242.5,100.5C 241.052,110.391 245.385,115.391 255.5,115.5C 255.278,119.171 254.944,122.837 254.5,126.5C 254.833,128.167 255.167,129.833 255.5,131.5C 257.718,130.076 259.218,128.076 260,125.5C 269.757,116.987 274.924,106.32 275.5,93.5C 272.276,93.2035 269.276,93.8702 266.5,95.5C 265.73,93.7282 264.397,92.7282 262.5,92.5C 260.013,93.7305 257.513,93.7305 255,92.5C 252.551,92.8613 250.218,93.528 248,94.5C 247.667,94.1667 247.333,93.8333 247,93.5C 245.287,94.8782 243.953,96.5448 243,98.5C 242.586,98.0426 242.086,97.7093 241.5,97.5C 238.713,99.9661 237.046,99.1327 236.5,95C 235.551,94.3828 234.718,94.5494 234,95.5C 233.798,93.7444 233.298,92.0777 232.5,90.5C 230.889,91.3202 230.222,92.6536 230.5,94.5C 226.006,93.8413 224.339,91.1746 225.5,86.5C 227.666,86.4211 229.666,85.7545 231.5,84.5C 233.423,85.0924 235.089,86.0924 236.5,87.5C 236.38,85.8014 236.046,84.1347 235.5,82.5C 236.982,78.6514 238.148,74.6514 239,70.5C 240.011,69.6634 241.178,69.33 242.5,69.5C 242.439,67.4078 241.439,65.9078 239.5,65C 240.549,64.5078 241.549,64.6744 242.5,65.5C 243.672,65.0814 244.672,64.4147 245.5,63.5C 241.777,62.3194 238.111,60.986 234.5,59.5C 232.997,58.4099 232.664,57.2433 233.5,56C 231.385,55.4427 229.385,54.6094 227.5,53.5C 226.165,51.3528 226.331,49.3528 228,47.5C 227.981,49.1075 227.815,50.7741 227.5,52.5C 228.93,52.5792 230.264,52.2458 231.5,51.5C 234.011,54.7553 237.344,56.422 241.5,56.5C 241.245,53.9837 240.411,51.6504 239,49.5C 235.858,48.0216 233.358,45.8549 231.5,43C 233.833,42.3333 236.167,42.3333 238.5,43C 242.776,44.7623 247.109,45.2623 251.5,44.5C 251.109,45.7185 251.776,46.5518 253.5,47C 252.167,47.3333 250.833,47.6667 249.5,48C 251.554,51.7001 254.054,52.2001 257,49.5C 259.4,53.7294 262.9,56.7294 267.5,58.5C 270.328,65.8184 274.828,71.8184 281,76.5C 281.464,75.9056 281.631,75.2389 281.5,74.5 Z"/></g>
<g><path style="opacity:1" fill="#afc5db" d="M 283.5,108.5 C 287.652,97.2996 288.152,85.9663 285,74.5C 284.667,75.1667 284.333,75.8333 284,76.5C 283.583,75.244 282.75,74.5774 281.5,74.5C 281.369,73.7611 281.536,73.0944 282,72.5C 282.654,73.6956 283.154,73.6956 283.5,72.5C 280.415,65.9915 276.582,59.9915 272,54.5C 270.736,52.393 268.903,51.393 266.5,51.5C 266.649,52.552 266.483,53.552 266,54.5C 264.992,52.741 263.492,51.5743 261.5,51C 265.082,50.4046 265.416,49.0712 262.5,47C 245.658,38.1252 228.991,38.4586 212.5,48C 208.297,50.6809 205.297,53.8475 203.5,57.5C 201.666,56.9706 199.999,57.6373 198.5,59.5C 205.38,49.0459 215.047,42.5459 227.5,40C 256.771,36.0509 276.604,47.8842 287,75.5C 288.949,84.1617 288.949,92.8284 287,101.5C 286.33,104.174 285.163,106.507 283.5,108.5 Z"/></g>
<g><path style="opacity:1" fill="#80a4cb" d="M 211.5,55.5 C 214.864,54.7893 217.197,55.956 218.5,59C 215.466,59.2647 213.132,58.0981 211.5,55.5 Z"/></g>
<g><path style="opacity:1" fill="#e1eaf3" d="M 213.5,50.5 C 212.058,51.8195 211.392,53.4862 211.5,55.5C 208.117,56.7544 207.617,55.7544 210,52.5C 210.816,51.1772 211.983,50.5106 213.5,50.5 Z"/></g>
<g><path style="opacity:1" fill="#2460a4" d="M 241.5,47.5 C 244.957,47.6672 245.29,48.6672 242.5,50.5C 241.614,49.675 241.281,48.675 241.5,47.5 Z"/></g>
<g><path style="opacity:1" fill="#7da4cb" d="M 213.5,50.5 C 215.478,47.6797 218.145,46.1797 221.5,46C 218.941,47.7774 216.274,49.2774 213.5,50.5 Z"/></g>
<g><path style="opacity:1" fill="#a7c0d7" d="M 196.5,62.5 C 190.915,74.0376 188.581,86.0376 189.5,98.5C 187.703,88.6172 188.537,78.9506 192,69.5C 193.026,66.7613 194.526,64.428 196.5,62.5 Z"/></g>
<g><path style="opacity:1" fill="#9dbeba" d="M 182.5,81.5 C 182.5,85.5 182.5,89.5 182.5,93.5C 181.566,92.4324 181.232,91.099 181.5,89.5C 172.833,89.5 164.167,89.5 155.5,89.5C 155.167,89.5 154.833,89.5 154.5,89.5C 154.5,89.1667 154.5,88.8333 154.5,88.5C 163.5,88.5 172.5,88.5 181.5,88.5C 181.198,85.9407 181.532,83.6074 182.5,81.5 Z"/></g>
<g><path style="opacity:1" fill="#2862a5" d="M 236.5,87.5 C 238.786,87.595 240.786,88.2616 242.5,89.5C 240.169,90.0435 237.836,90.3769 235.5,90.5C 235.167,90.1667 234.833,89.8333 234.5,89.5C 235.243,88.8182 235.909,88.1515 236.5,87.5 Z"/></g>
<g><path style="opacity:1" fill="#5a91c1" d="M 294.5,89.5 C 294.5,89.1667 294.5,88.8333 294.5,88.5C 303.833,88.5 313.167,88.5 322.5,88.5C 322.813,92.0419 322.479,95.3752 321.5,98.5C 321.5,95.5 321.5,92.5 321.5,89.5C 312.5,89.5 303.5,89.5 294.5,89.5 Z"/></g>
<g><path style="opacity:1" fill="#4c79b2" d="M 242.5,89.5 C 244.166,88.3336 245.833,88.3336 247.5,89.5C 245.494,91.8963 243.828,91.8963 242.5,89.5 Z"/></g>
<g><path style="opacity:1" fill="#1a579e" d="M 155.5,89.5 C 164.167,89.5 172.833,89.5 181.5,89.5C 181.232,91.099 181.566,92.4324 182.5,93.5C 189.706,129.522 211.706,146.022 248.5,143C 276.519,136.143 291.853,118.31 294.5,89.5C 303.5,89.5 312.5,89.5 321.5,89.5C 321.5,92.5 321.5,95.5 321.5,98.5C 320.433,110.367 316.766,121.367 310.5,131.5C 315.032,136.196 319.365,141.029 323.5,146C 315.71,154.791 307.543,163.291 299,171.5C 294.622,166.786 289.956,162.453 285,158.5C 250.827,178.354 217.66,176.854 185.5,154C 168.872,140.239 158.872,122.739 155.5,101.5C 155.5,97.5 155.5,93.5 155.5,89.5 Z"/></g>
<g><path style="opacity:1" fill="#7095c3" d="M 154.5,89.5 C 154.833,89.5 155.167,89.5 155.5,89.5C 155.5,93.5 155.5,97.5 155.5,101.5C 154.729,98.1542 154.062,94.6542 153.5,91C 153.57,90.2352 153.903,89.7352 154.5,89.5 Z"/></g>
<g><path style="opacity:1" fill="#abc4dd" d="M 107.5,104.5 C 108.434,105.568 108.768,106.901 108.5,108.5C 94.4841,108.833 80.4841,108.499 66.5,107.5C 66.6236,106.893 66.9569,106.56 67.5,106.5C 80.6562,107.496 93.9895,107.829 107.5,107.5C 107.5,106.5 107.5,105.5 107.5,104.5 Z"/></g>
<g><path style="opacity:1" fill="#c1d2e3" d="M 213.5,130.5 C 230.176,138.462 246.842,138.462 263.5,130.5C 260.68,133.081 257.346,134.914 253.5,136C 243.823,139.269 234.157,139.269 224.5,136C 220.213,135.19 216.546,133.357 213.5,130.5 Z"/></g>
<g><path style="opacity:1" fill="#b7cce2" d="M 9.5,169.5 C 21.1201,171.479 33.1201,172.146 45.5,171.5C 33.3446,172.495 21.0113,172.829 8.5,172.5C 8.26269,171.209 8.59603,170.209 9.5,169.5 Z"/></g>
<g><path style="opacity:1" fill="#b5cbe1" d="M 166.5,169.5 C 167.404,170.209 167.737,171.209 167.5,172.5C 154.656,172.829 141.989,172.495 129.5,171.5C 142.212,172.146 154.545,171.48 166.5,169.5 Z"/></g>
<g><path style="opacity:1" fill="#84a8ce" d="M 382.5,227.5 C 382.5,211.833 382.5,196.167 382.5,180.5C 256.5,180.5 130.5,180.5 4.5,180.5C 4.5,196.167 4.5,211.833 4.5,227.5C 3.50364,211.675 3.1703,195.675 3.5,179.5C 130.167,179.5 256.833,179.5 383.5,179.5C 383.83,195.675 383.496,211.675 382.5,227.5 Z"/></g>
<g><path style="opacity:1" fill="#10559d" d="M 382.5,227.5 C 256.5,227.5 130.5,227.5 4.5,227.5C 4.5,211.833 4.5,196.167 4.5,180.5C 130.5,180.5 256.5,180.5 382.5,180.5C 382.5,196.167 382.5,211.833 382.5,227.5 Z"/></g>
<g><path style="opacity:1" fill="#f3f7fa" d="M 107.5,191.5 C 122.66,190.832 127.66,197.665 122.5,212C 122.759,213.261 123.426,214.261 124.5,215C 123.667,215.833 122.833,216.667 122,217.5C 121.196,216.196 120.029,215.529 118.5,215.5C 104.618,217.446 99.1175,211.446 102,197.5C 103.36,194.977 105.193,192.977 107.5,191.5 Z"/></g>
<g><path style="opacity:1" fill="#f1f5f9" d="M 32.5,191.5 C 34.8333,191.5 37.1667,191.5 39.5,191.5C 41.4507,199.57 44.1173,207.403 47.5,215C 43.1757,216.305 40.8424,214.805 40.5,210.5C 37.4816,210.335 34.4816,210.502 31.5,211C 30.6198,212.356 30.2865,213.856 30.5,215.5C 28.396,215.799 26.396,215.466 24.5,214.5C 27.5689,206.959 30.2356,199.293 32.5,191.5 Z"/></g>
<g><path style="opacity:1" fill="#95b5d4" d="M 54.5,215.5 C 54.5,207.833 54.5,200.167 54.5,192.5C 53.1667,192.5 51.8333,192.5 50.5,192.5C 50.5,200.167 50.5,207.833 50.5,215.5C 49.5076,207.684 49.1743,199.684 49.5,191.5C 51.5,191.5 53.5,191.5 55.5,191.5C 55.8257,199.684 55.4924,207.684 54.5,215.5 Z"/></g>
<g><path style="opacity:1" fill="#fefffe" d="M 54.5,215.5 C 53.1667,215.5 51.8333,215.5 50.5,215.5C 50.5,207.833 50.5,200.167 50.5,192.5C 51.8333,192.5 53.1667,192.5 54.5,192.5C 54.5,200.167 54.5,207.833 54.5,215.5 Z"/></g>
<g><path style="opacity:1" fill="#f6f9fb" d="M 59.5,191.5 C 64.5111,191.334 69.5111,191.501 74.5,192C 80.2524,195.181 80.9191,199.181 76.5,204C 77,204.5 77.5,205 78,205.5C 78.2117,208.758 78.7117,211.924 79.5,215C 77.5273,215.495 75.5273,215.662 73.5,215.5C 73.6641,212.813 73.4974,210.146 73,207.5C 70.2809,206.556 67.4475,206.223 64.5,206.5C 64.5,209.5 64.5,212.5 64.5,215.5C 62.8333,215.5 61.1667,215.5 59.5,215.5C 59.5,207.5 59.5,199.5 59.5,191.5 Z"/></g>
<g><path style="opacity:1" fill="#f7f9fb" d="M 128.5,209.5 C 128.5,203.833 128.5,198.167 128.5,192.5C 129.833,192.5 131.167,192.5 132.5,192.5C 132.179,198.026 132.512,203.36 133.5,208.5C 135.62,213.396 138.453,213.729 142,209.5C 142.499,203.509 142.666,197.509 142.5,191.5C 144.167,191.5 145.833,191.5 147.5,191.5C 147.666,197.842 147.5,204.175 147,210.5C 144.124,216.015 139.624,217.848 133.5,216C 130.466,214.809 128.799,212.642 128.5,209.5 Z"/></g>
<g><path style="opacity:1" fill="#a0beda" d="M 133.5,208.5 C 132.512,203.36 132.179,198.026 132.5,192.5C 131.167,192.5 129.833,192.5 128.5,192.5C 128.5,198.167 128.5,203.833 128.5,209.5C 127.51,203.69 127.177,197.69 127.5,191.5C 129.5,191.5 131.5,191.5 133.5,191.5C 133.5,197.167 133.5,202.833 133.5,208.5 Z"/></g>
<g><path style="opacity:1" fill="#f3f7fa" d="M 157.5,191.5 C 159.604,191.201 161.604,191.534 163.5,192.5C 165.966,199.899 168.633,207.232 171.5,214.5C 169.604,215.466 167.604,215.799 165.5,215.5C 165.694,211.738 163.86,210.071 160,210.5C 156.14,210.071 154.306,211.738 154.5,215.5C 152.833,215.5 151.167,215.5 149.5,215.5C 151.566,207.303 154.232,199.303 157.5,191.5 Z"/></g>
<g><path style="opacity:1" fill="#f9fafc" d="M 174.5,191.5 C 176.167,191.5 177.833,191.5 179.5,191.5C 179.5,198.167 179.5,204.833 179.5,211.5C 183.5,211.5 187.5,211.5 191.5,211.5C 191.5,212.833 191.5,214.167 191.5,215.5C 185.833,215.5 180.167,215.5 174.5,215.5C 174.5,207.5 174.5,199.5 174.5,191.5 Z"/></g>
<g><path style="opacity:1" fill="#f4f7fb" d="M 194.5,191.5 C 196.167,191.5 197.833,191.5 199.5,191.5C 199.5,199.5 199.5,207.5 199.5,215.5C 197.833,215.5 196.167,215.5 194.5,215.5C 194.5,207.5 194.5,199.5 194.5,191.5 Z"/></g>
<g><path style="opacity:1" fill="#f6f9fb" d="M 221.5,191.5 C 221.5,192.833 221.5,194.167 221.5,195.5C 219.167,195.5 216.833,195.5 214.5,195.5C 214.5,202.167 214.5,208.833 214.5,215.5C 212.833,215.5 211.167,215.5 209.5,215.5C 209.5,208.833 209.5,202.167 209.5,195.5C 207.167,195.5 204.833,195.5 202.5,195.5C 202.5,194.167 202.5,192.833 202.5,191.5C 208.833,191.5 215.167,191.5 221.5,191.5 Z"/></g>
<g><path style="opacity:1" fill="#eff4f8" d="M 223.5,191.5 C 225.604,191.201 227.604,191.534 229.5,192.5C 230.473,195.779 231.973,198.779 234,201.5C 235.139,198.417 236.472,195.417 238,192.5C 239.699,191.594 241.533,191.261 243.5,191.5C 242.087,196.444 239.92,201.111 237,205.5C 236.502,208.817 236.335,212.15 236.5,215.5C 234.833,215.5 233.167,215.5 231.5,215.5C 231.665,212.482 231.498,209.482 231,206.5C 228.233,201.965 225.733,197.299 223.5,192.5C 223.5,192.167 223.5,191.833 223.5,191.5 Z"/></g>
<g><path style="opacity:1" fill="#fbfcfd" d="M 265.5,191.5 C 267.167,191.5 268.833,191.5 270.5,191.5C 270.5,199.5 270.5,207.5 270.5,215.5C 268.833,215.5 267.167,215.5 265.5,215.5C 265.5,207.5 265.5,199.5 265.5,191.5 Z"/></g>
<g><path style="opacity:1" fill="#b4cce2" d="M 280.5,192.5 C 278.833,192.5 277.167,192.5 275.5,192.5C 275.5,200.167 275.5,207.833 275.5,215.5C 274.508,207.684 274.174,199.684 274.5,191.5C 276.735,191.205 278.735,191.539 280.5,192.5 Z"/></g>
<g><path style="opacity:1" fill="#f4f7fa" d="M 275.5,215.5 C 275.5,207.833 275.5,200.167 275.5,192.5C 277.167,192.5 278.833,192.5 280.5,192.5C 283.306,197.437 286.139,202.437 289,207.5C 289.499,202.177 289.666,196.844 289.5,191.5C 291.167,191.5 292.833,191.5 294.5,191.5C 294.5,199.5 294.5,207.5 294.5,215.5C 292.396,215.799 290.396,215.466 288.5,214.5C 285.667,209.5 282.833,204.5 280,199.5C 279.501,204.823 279.334,210.156 279.5,215.5C 278.167,215.5 276.833,215.5 275.5,215.5 Z"/></g>
<g><path style="opacity:1" fill="#f6f9fb" d="M 299.5,191.5 C 314.493,188.009 320.993,193.675 319,208.5C 318.208,210.587 317.041,212.421 315.5,214C 310.292,215.397 304.959,215.897 299.5,215.5C 299.5,207.5 299.5,199.5 299.5,191.5 Z"/></g>
<g><path style="opacity:1" fill="#f6f9fb" d="M 340.5,191.5 C 340.5,192.833 340.5,194.167 340.5,195.5C 336.298,195.183 332.298,195.517 328.5,196.5C 328.5,197.833 328.5,199.167 328.5,200.5C 331.962,201.482 335.629,201.815 339.5,201.5C 339.5,202.833 339.5,204.167 339.5,205.5C 335.833,205.5 332.167,205.5 328.5,205.5C 328.5,207.5 328.5,209.5 328.5,211.5C 332.833,211.5 337.167,211.5 341.5,211.5C 341.5,212.833 341.5,214.167 341.5,215.5C 335.5,215.5 329.5,215.5 323.5,215.5C 323.5,207.5 323.5,199.5 323.5,191.5C 329.167,191.5 334.833,191.5 340.5,191.5 Z"/></g>
<g><path style="opacity:1" fill="#f1f5f9" d="M 344.5,191.5 C 346.604,191.201 348.604,191.534 350.5,192.5C 351.414,194.664 352.581,196.664 354,198.5C 355.87,196.595 357.37,194.428 358.5,192C 360.5,191.333 362.5,191.333 364.5,192C 361.968,195.702 359.635,199.535 357.5,203.5C 359.708,207.417 362.041,211.25 364.5,215C 362.5,215.667 360.5,215.667 358.5,215C 357.37,212.572 355.87,210.405 354,208.5C 352.623,210.754 351.123,212.92 349.5,215C 347.741,215.798 346.074,215.631 344.5,214.5C 346.771,210.956 348.771,207.29 350.5,203.5C 348.492,199.483 346.492,195.483 344.5,191.5 Z"/></g>
<g><path style="opacity:1" fill="#83aace" d="M 340.5,191.5 C 341.451,192.919 341.784,194.585 341.5,196.5C 337.167,196.5 332.833,196.5 328.5,196.5C 332.298,195.517 336.298,195.183 340.5,195.5C 340.5,194.167 340.5,192.833 340.5,191.5 Z"/></g>
<g><path style="opacity:1" fill="#265fa3" d="M 64.5,195.5 C 67.1873,195.336 69.854,195.503 72.5,196C 75.1667,198 75.1667,200 72.5,202C 69.854,202.497 67.1873,202.664 64.5,202.5C 64.5,200.167 64.5,197.833 64.5,195.5 Z"/></g>
<g><path style="opacity:1" fill="#19589f" d="M 110.5,195.5 C 119.055,196.238 121.555,200.571 118,208.5C 117.333,207.833 116.667,207.167 116,206.5C 113.822,208.287 112.822,210.287 113,212.5C 106.996,210.154 104.996,205.821 107,199.5C 107.69,197.65 108.856,196.316 110.5,195.5 Z"/></g>
<g><path style="opacity:1" fill="#4d82b8" d="M 221.5,191.5 C 222.167,191.5 222.833,191.5 223.5,191.5C 223.5,191.833 223.5,192.167 223.5,192.5C 222.566,193.568 222.232,194.901 222.5,196.5C 220.167,196.5 217.833,196.5 215.5,196.5C 215.823,203.022 215.49,209.355 214.5,215.5C 214.5,208.833 214.5,202.167 214.5,195.5C 216.833,195.5 219.167,195.5 221.5,195.5C 221.5,194.167 221.5,192.833 221.5,191.5 Z"/></g>
<g><path style="opacity:1" fill="#9ab9d7" d="M 310.5,196.5 C 308.5,196.5 306.5,196.5 304.5,196.5C 304.5,201.5 304.5,206.5 304.5,211.5C 303.512,206.36 303.179,201.026 303.5,195.5C 306.059,195.198 308.393,195.532 310.5,196.5 Z"/></g>
<g><path style="opacity:1" fill="#0f549d" d="M 310.5,196.5 C 312.411,196.574 313.578,197.574 314,199.5C 316.146,208.046 312.98,212.046 304.5,211.5C 304.5,206.5 304.5,201.5 304.5,196.5C 306.5,196.5 308.5,196.5 310.5,196.5 Z"/></g>
<g><path style="opacity:1" fill="#225da2" d="M 159.5,198.5 C 161.585,200.684 162.585,203.351 162.5,206.5C 160.833,206.5 159.167,206.5 157.5,206.5C 157.963,203.779 158.629,201.112 159.5,198.5 Z"/></g>
<g><path style="opacity:1" fill="#729cc6" d="M 328.5,200.5 C 332.5,200.5 336.5,200.5 340.5,200.5C 340.784,202.415 340.451,204.081 339.5,205.5C 339.5,204.167 339.5,202.833 339.5,201.5C 335.629,201.815 331.962,201.482 328.5,200.5 Z"/></g>
<g><path style="opacity:1" fill="#225da2" d="M 35.5,198.5 C 37.2671,200.792 38.2671,203.458 38.5,206.5C 36.8333,206.5 35.1667,206.5 33.5,206.5C 33.8583,203.733 34.525,201.067 35.5,198.5 Z"/></g>
</svg>
